<?xml version="1.0" encoding="utf-8"?>
<!-- Generator: Adobe Illustrator 15.1.0, SVG Export Plug-In  -->
<!DOCTYPE svg PUBLIC "-//W3C//DTD SVG 1.1//EN" "http://www.w3.org/Graphics/SVG/1.1/DTD/svg11.dtd" [
	<!ENTITY ns_flows "http://ns.adobe.com/Flows/1.0/">
]>
<svg version="1.1"
	 xmlns="http://www.w3.org/2000/svg" xmlns:xlink="http://www.w3.org/1999/xlink" xmlns:a="http://ns.adobe.com/AdobeSVGViewerExtensions/3.0/"
	 x="0px" y="0px" width="200px" height="200px" viewBox="0.031 0 200 200" enable-background="new 0.031 0 200 200"
	 xml:space="preserve">
<defs>
</defs>
<circle fill="#FFFFFF" cx="99.978" cy="99.978" r="99.978"/>
<path fill="#D64D4D" d="M167.215,73.072c7.876,19.699,6.966,43.133-4.577,63.061c-15.242,26.434-44.661,39.624-73.125,35.46
	l33.621-58.185c7.391-12.828,2.999-29.262-9.803-36.625c-4.179-2.465-8.804-3.711-13.338-3.711H167.215z"/>
<path fill="#BE3A34" d="M167.215,73.072H99.992c-9.238,0-18.233,4.943-23.179,13.54c-4.84,8.328-4.635,18.347-0.28,26.288
	L43.175,55.171c21.882-27.759,61.452-36.091,92.946-17.905C150.824,45.729,161.405,58.48,167.215,73.072"/>
<path fill="#912A2A" d="M123.133,113.436l-33.62,58.212c-8.81-1.274-17.513-4.221-25.697-8.919
	c-34.644-19.994-46.488-64.236-26.508-98.84c1.787-3.119,3.75-5.974,5.866-8.691l33.356,57.757l0.283,0.481
	c2.263,3.938,5.577,7.365,9.803,9.774C99.393,130.603,115.754,126.21,123.133,113.436"/>
<path fill="#912A2A" d="M115.755,72.233c15.391,8.851,20.666,28.487,11.785,43.908c-8.868,15.354-28.537,20.633-43.892,11.747
	c-5.078-2.895-9.063-7.017-11.782-11.747l-0.338-0.579c-5.232-9.546-5.481-21.521,0.338-31.532
	c5.946-10.332,16.756-16.144,27.859-16.144C105.176,67.886,110.735,69.271,115.755,72.233"/>
<path fill="#FFFFFF" d="M99.682,134.648c-6.039,0-12.006-1.604-17.256-4.644c-5.26-3.001-9.65-7.376-12.68-12.647l-0.329-0.564
	c-5.825-10.628-5.685-23.632,0.336-33.991c6.161-10.706,17.646-17.36,29.972-17.36c6.105,0,12.079,1.62,17.274,4.685
	c7.987,4.596,13.718,12.044,16.111,20.963c2.396,8.92,1.169,18.249-3.453,26.271C123.499,128.026,112.013,134.648,99.682,134.648
	 M99.725,70.332c-10.582,0-20.443,5.717-25.74,14.917c-5.17,8.899-5.288,20.06-0.312,29.138l0.306,0.521
	c2.604,4.53,6.363,8.279,10.881,10.858c4.522,2.616,9.641,3.994,14.822,3.994c10.588,0,20.453-5.688,25.741-14.843
	c3.968-6.889,5.022-14.902,2.967-22.559c-2.057-7.656-6.975-14.051-13.853-18.007C110.069,71.717,104.957,70.332,99.725,70.332"/>
</svg>
