<?xml version="1.0" encoding="utf-8"?>
<!-- Generator: Adobe Illustrator 15.1.0, SVG Export Plug-In  -->
<!DOCTYPE svg PUBLIC "-//W3C//DTD SVG 1.1//EN" "http://www.w3.org/Graphics/SVG/1.1/DTD/svg11.dtd" [
	<!ENTITY ns_flows "http://ns.adobe.com/Flows/1.0/">
]>
<svg version="1.1"
	 xmlns="http://www.w3.org/2000/svg" xmlns:xlink="http://www.w3.org/1999/xlink" xmlns:a="http://ns.adobe.com/AdobeSVGViewerExtensions/3.0/"
	 x="0px" y="0px" width="200px" height="200px" viewBox="0 0 200 200" enable-background="new 0 0 200 200" xml:space="preserve">
<defs>
</defs>
<circle fill="#FFFFFF" cx="99.697" cy="99.697" r="99.697"/>
<path fill="#FFFFFF" d="M169.211,96.176c0-38.007-31.003-68.819-69.249-68.819c-38.244,0-69.25,30.812-69.25,68.819
	c0,38.004,31.006,68.816,69.25,68.816C138.208,164.992,169.211,134.181,169.211,96.176"/>
<path fill="#CE5332" d="M50.695,130.48c0.28,0.28,0.483,0.438,0.594,0.46l0.046-0.025C51.122,130.773,50.91,130.63,50.695,130.48"/>
<path fill="none" d="M51.278,135.211l0.044-0.022c-0.211-0.144-0.424-0.287-0.637-0.437
	C50.964,135.033,51.168,135.191,51.278,135.211z"/>
<path fill="#BE3A34" d="M171.808,91.979c-0.003-0.085-0.002-0.171-0.006-0.254c-0.002,0.021-0.007,0.041-0.007,0.063
	c-0.132-2.434-0.488-4.775-1.118-7.115c-0.949,3.694-1.139,4.919-1.695,5.855c-0.002-0.149-0.04-4.112-1.293-9.706
	c-0.62-4.274-1.573-8.262-2.87-11.961c0.311,1.643,0.497,3.034,0.585,4.272c-0.991-2.631-2.254-5.377-3.865-8.1
	c-0.336-1.3-1.645-5.15-6.386-11.409c0,0,1.109,1.805,1.493,4.632c-4.886-5.583-16.369-12.299-29.367-16.465
	c-0.005-0.001-0.011-0.005-0.018-0.009c-0.126-0.04-0.255-0.076-0.384-0.115c-0.701-0.222-1.407-0.437-2.116-0.642
	c-0.245-0.071-0.488-0.142-0.734-0.211c-0.85-0.238-1.704-0.471-2.561-0.685c-0.103-0.026-0.206-0.049-0.312-0.074
	c-0.782-0.193-1.568-0.373-2.354-0.544c-0.231-0.049-0.46-0.1-0.69-0.147c-0.877-0.182-1.753-0.354-2.631-0.507
	c-0.07-0.013-0.143-0.022-0.214-0.034c-0.814-0.138-1.629-0.261-2.443-0.372c-0.233-0.033-0.468-0.064-0.702-0.094
	c-0.875-0.11-1.749-0.21-2.619-0.287c-0.046-0.005-0.088-0.006-0.132-0.01c-0.834-0.071-1.663-0.121-2.49-0.159
	c-0.227-0.01-0.453-0.019-0.681-0.026c-0.862-0.029-1.725-0.045-2.577-0.035c-0.003,0-0.004,0-0.008,0c-0.003,0-0.007,0-0.011,0
	c0,0,28.864,7.487,34.128,15.389c0,0-2.479-1.421-6.146-2.206c-0.001-0.002-0.002-0.003-0.006-0.004
	c-0.037-0.009-0.08-0.013-0.116-0.021c-0.434-0.09-0.882-0.169-1.345-0.238c-0.108-0.016-0.214-0.031-0.32-0.046
	c-0.53-0.072-1.07-0.13-1.63-0.162c-0.03-0.002-0.06-0.001-0.092-0.004c-0.519-0.027-1.049-0.031-1.591-0.02
	c-0.135,0.004-0.267,0.008-0.403,0.014c-0.588,0.026-1.181,0.068-1.786,0.152c5.352,2.112,8.104,5.815,11.945,8.143
	c3.245,2.049,6.519,4.566,9.141,7.536c-1.035-0.435-2.181-0.882-3.456-1.331c0.053,0.02,0.134,0.05,0.241,0.092
	c-0.089-0.032-0.166-0.062-0.252-0.092c0.421,0.154,2.659,1.031,4.737,2.878c0.207,0.268,0.393,0.548,0.589,0.822
	c0.144,0.204,0.289,0.404,0.425,0.61c0.192,0.293,0.369,0.593,0.549,0.893c0.138,0.235,0.273,0.469,0.404,0.708
	c0.162,0.3,0.317,0.603,0.465,0.91c0.119,0.253,0.231,0.512,0.342,0.771c0.132,0.306,0.265,0.611,0.378,0.923
	c0.106,0.293,0.192,0.593,0.284,0.891c0.563,1.835,0.848,3.772,0.735,5.826c-1.28-1.994-2.225-3.485-4.514-5.521
	c0-0.004,0-0.008,0-0.012c-0.317-0.282-0.663-0.578-1.037-0.885c0,0.004,0.001,0.007,0.002,0.011
	c-0.005-0.004-0.009-0.007-0.015-0.011c1.146,4.451,1.769,9.804,1.972,15.167c0.002,0.048,0.002,0.097,0.003,0.146
	c0.324,8.92-0.516,17.848-2.058,22.669c-0.638-4.116-1.428-6.385-2.579-7.598c-0.001-0.004-0.001-0.008-0.001-0.011
	c-0.137-0.142-0.273-0.277-0.42-0.391c0,0.004,0,0.006,0.001,0.011c-0.004-0.005-0.008-0.007-0.011-0.011
	c1.939,15.934-1.675,19.749-8.84,27.428c0.593-2.052,1.021-3.93,1.304-5.659c0.002-0.004,0.006-0.008,0.011-0.015
	c0.023-0.144,0.038-0.281,0.059-0.425c0.032-0.22,0.062-0.438,0.089-0.652c0.038-0.296,0.074-0.59,0.1-0.877
	c0.019-0.165,0.029-0.327,0.041-0.489c0.025-0.329,0.049-0.656,0.061-0.973c0.003-0.056,0.003-0.109,0.004-0.165
	c0.022-0.809,0.011-1.581-0.063-2.296c-0.003,0.005-0.006,0.01-0.01,0.015c-0.001-0.005-0.001-0.01-0.001-0.015
	c-8.421,12.604-18.002,19.127-28.741,19.537c-4.246-0.038-8.255-0.681-12.023-1.902l-0.004-0.005
	c-5.533-1.854-10.551-5.017-15.011-9.516c6.969,0.581,13.323-0.627,18.921-3.459l9.173-5.947c1.188-0.442,5.069-5.424,0.815-7.471
	c-4.587-2.38-9.377-2.006-14.372,1.152c-4.757,2.688-9.343,2.584-13.792-0.271c-2.922-2.004-5.742-4.688-8.459-8.053l-1.176-1.629
	c-0.583-1.666-0.337-2.901,0.357-3.79l0.005,0.005c0.783-1.004,2.14-1.568,3.546-1.785c0,0,1.038-0.193,2.713-0.114
	c1.968,0.094,4.817,0.566,7.945,2.184c0-0.002,0-0.004,0-0.006c0.002,0.002,0.006,0.004,0.01,0.005
	c0.103-0.724,0.16-1.399,0.198-2.055c0.002-0.038,0.004-0.073,0.005-0.11c0.033-0.604,0.042-1.185,0.025-1.738
	c-0.001-0.05-0.001-0.102-0.001-0.15c-0.02-0.495-0.051-0.973-0.104-1.427c-0.002,0.02-0.005,0.042-0.006,0.061
	c-0.322-2.867-1.288-4.944-2.417-6.438c3.526-3.238,6.667-5.609,9.35-7.133c1.115-0.59,1.789-1.475,2.082-2.628
	c0.703-0.279,1.2-0.961,1.2-1.764c0-0.013-0.003-0.025-0.005-0.04c0-0.008,0.005-0.016,0.005-0.026c0-0.492-0.207-0.937-0.536-1.253
	c-0.348-0.357-0.829-0.581-1.366-0.581c-0.483,0-0.919,0.186-1.254,0.482c-2.024,0.007-4.048-0.174-6.071-0.58
	c-1.053-0.306-2.412-1.12-4.043-2.683l-4.112-4.076l-1.318-1.02c0.036-0.17,0.084-0.419,0.097-0.475
	c0.207-1.104,0.479-2.132,0.78-3.125l0.009,0.007c0.546-1.795,1.234-3.436,2.109-4.9l0.306-0.272
	c1.359-2.242,3.974-4.653,7.814-7.236c-0.005,0-0.008,0.001-0.014,0.002c0.001,0,0.002,0,0.003-0.002
	c-0.045,0.006-0.09,0.017-0.135,0.021c-0.679,0.089-1.351,0.203-2.016,0.335c-0.368,0.072-0.734,0.152-1.097,0.236
	c-0.246,0.059-0.488,0.123-0.731,0.186c-5.572,1.426-10.7,4.342-15.351,8.803c-4.758-1.736-10.396-1.361-16.886,1.12
	c-4.075-1.87-3.626-7.238-4.951-15.968c-5.198,5.096-10.88,14.201-10.711,27.35c0,0-4.756,7.267-5.307,8.301
	c-2.086,3.909-2.738,6.243-2.847,8.987c0.017-0.026-0.018,0.782-0.001,0.753c0.02,0.57,0.094,1.116,0.24,1.629
	c0,0,0.005-0.008,0.008-0.01c0,0.003,0.001,0.006,0.001,0.01c0,0,1.192-1.611,2.592-2.637c0.001-0.004,0.002-0.005,0.003-0.009
	c0.523-0.383,1.076-0.684,1.608-0.784c-0.432,0.239-2.548,7.913-3.058,12.229c-1.03,9.342,0.362,18.61,4.168,27.804
	c0.008,0.016,0.014,0.034,0.021,0.049c0.314,0.756,0.643,1.511,0.989,2.264c0.028,0.062,0.057,0.122,0.085,0.185
	c0.335,0.729,0.687,1.455,1.054,2.183c0.039,0.077,0.08,0.152,0.119,0.23c0.37,0.725,0.75,1.448,1.149,2.173
	c0.029,0.052,0.061,0.104,0.09,0.157c1.289,2.321,2.718,4.637,4.319,6.945c14.369,18.585,32.444,28.541,54.187,29.863
	c1.36,0.082,2.708,0.126,4.042,0.133c20.016,0.124,37.218-7.933,51.584-24.116c10.361-12.706,16.713-25.992,19.092-39.884
	c0.854-3.427,1.433-6.5,1.749-9.365c0.03-0.271,0.059-0.539,0.082-0.806c0.061-0.633,0.104-1.256,0.139-1.871
	c0.025-0.482,0.04-0.959,0.05-1.431c0.008-0.446,0.014-0.89,0.007-1.328C171.843,92.812,171.829,92.393,171.808,91.979z
	 M51.278,135.211c-0.11-0.02-0.314-0.178-0.593-0.459c0.213,0.149,0.426,0.293,0.637,0.437L51.278,135.211z"/>
</svg>
