<?xml version="1.0" encoding="utf-8"?>
<!-- Generator: Adobe Illustrator 15.1.0, SVG Export Plug-In  -->
<!DOCTYPE svg PUBLIC "-//W3C//DTD SVG 1.1//EN" "http://www.w3.org/Graphics/SVG/1.1/DTD/svg11.dtd" [
	<!ENTITY ns_flows "http://ns.adobe.com/Flows/1.0/">
]>
<svg version="1.1"
	 xmlns="http://www.w3.org/2000/svg" xmlns:xlink="http://www.w3.org/1999/xlink" xmlns:a="http://ns.adobe.com/AdobeSVGViewerExtensions/3.0/"
	 x="0px" y="0px" width="190px" height="190px" viewBox="0 0 190 190" enable-background="new 0 0 190 190" xml:space="preserve">
<defs>
</defs>
<path fill="#707372" d="M95,0C42.533,0,0,42.533,0,95c0,52.467,42.533,95,95,95c52.467,0,95-42.533,95-95C190,42.533,147.467,0,95,0
	z M117.943,165.537c-3.67,0.708-4.988-1.548-4.988-3.476c0-2.389,0.098-10.198,0.098-19.883c0-6.758-2.309-11.162-4.918-13.409
	c16.141-1.796,33.088-7.925,33.088-35.759c0-7.916-2.805-14.373-7.447-19.445c0.742-1.832,3.236-9.195-0.725-19.176
	c0,0-6.086-1.955-19.91,7.43c-5.785-1.615-11.984-2.42-18.141-2.445c-6.16,0.025-12.356,0.822-18.133,2.436
	C63.018,52.434,56.94,54.38,56.94,54.38c-3.948,9.972-1.454,17.345-0.716,19.185c-4.626,5.072-7.452,11.529-7.452,19.445
	c0,27.764,16.92,33.981,33.005,35.813c-2.066,1.804-3.941,5.006-4.6,9.676c-4.122,1.857-14.621,5.059-21.086-6.015
	c0,0-3.83-6.961-11.105-7.465c0,0-7.084-0.089-0.499,4.404c0,0,4.745,2.229,8.044,10.597c0,0,4.26,12.922,24.408,8.543
	c0.035,6.051,0.102,11.764,0.102,13.488c0,1.911-1.322,4.148-4.945,3.485c-28.793-9.579-49.553-36.732-49.553-68.751
	C22.543,56.772,54.986,24.33,95,24.33s72.457,32.442,72.457,72.456C167.457,128.787,146.715,155.94,117.943,165.537z"/>
</svg>
