<?xml version="1.0" encoding="utf-8"?>
<!-- Generator: Adobe Illustrator 15.1.0, SVG Export Plug-In  -->
<!DOCTYPE svg PUBLIC "-//W3C//DTD SVG 1.1//EN" "http://www.w3.org/Graphics/SVG/1.1/DTD/svg11.dtd" [
	<!ENTITY ns_flows "http://ns.adobe.com/Flows/1.0/">
]>
<svg version="1.1"
	 xmlns="http://www.w3.org/2000/svg" xmlns:xlink="http://www.w3.org/1999/xlink" xmlns:a="http://ns.adobe.com/AdobeSVGViewerExtensions/3.0/"
	 x="0px" y="0px" width="190px" height="190px" viewBox="0 0 190 190" enable-background="new 0 0 190 190" xml:space="preserve">
<defs>
</defs>
<rect display="none" fill="#EFEFEF" width="190" height="190"/>
<path fill="none" d="M67.5,78.518C53.167,74.202,41,85,41,85s2.833,18.334,15.333,22.167s30-6.121,30-6.121
	S81.833,82.833,67.5,78.518z"/>
<path fill="#707372" d="M95,0C42.533,0,0,42.533,0,95c0,22.557,7.867,43.273,21,59.568V79c0-0.22,0.044-0.427,0.109-0.625
	c0.008-1.399,0.24-2.294,0.709-2.508c0.273-0.125,0.546-0.248,0.819-0.369l4.391,25.188c-0.744-1.737-1.42-3.472-2.029-5.17v63.705
	C42.365,178.139,67.296,190,95,190c52.467,0,95-42.533,95-95C190,42.533,147.467,0,95,0z M56.333,107.167
	C43.833,103.334,41,85,41,85s12.167-10.798,26.5-6.482s18.833,22.528,18.833,22.528S68.833,111,56.333,107.167z M135,107.167
	c-12.5,3.833-30-6.121-30-6.121s4.5-18.212,18.834-22.528s26.5,6.482,26.5,6.482S147.5,103.334,135,107.167z"/>
<path fill="#707372" d="M156.527,149.561c-1.174,0.644-2.155,1.374-2.566,2.277c-0.342,0.751-0.368,1.399-0.193,1.976
	c0.329-0.191,0.647-0.39,0.941-0.605C156.264,152.065,156.601,150.833,156.527,149.561z"/>
<path fill="#707372" d="M156.614,132.909c0.154,0.131,0.318,0.264,0.488,0.397c-0.628-0.905-1.354-1.764-2.225-2.585
	C155.175,131.425,155.727,132.155,156.614,132.909z"/>
<path fill="#707372" d="M164.17,106.919c-2.213,2.657-1.526,5.537,1.08,7.636c0.854,0.688,1.98,1.442,2.453,2.461
	c0.437,0.943,0.554,1.842,0.435,2.697c2.07-1.366,3.339-3.201,2.534-5.905c-0.66-2.22-1.646-4.193-3.343-5.819
	c-0.53-0.509-1.451-1.189-1.753-1.917c-0.052-0.125-0.092-0.254-0.129-0.383C164.987,106.066,164.549,106.465,164.17,106.919z"/>
<path fill="#707372" d="M164.691,122.443c0.256-0.289,0.472-0.563,0.658-0.824c-0.149,0.055-0.299,0.108-0.446,0.161
	c-3.03,1.086-9.165,3.53-10.156,6.797C158.161,126.93,162.17,125.3,164.691,122.443z"/>
<path fill="#707372" d="M158.537,147.778c2.854-1.624,5.17-3.563,3.5-7.126c-0.099,0.08-0.202,0.15-0.29,0.199
	C157.242,143.348,158.254,144.308,158.537,147.778z"/>
<path fill="#707372" d="M171.453,91.387c0.813,0.926,2.081,1.91,2.512,3.099c0.065,0.181,0.107,0.365,0.156,0.548
	c1.297-1.041,2.393-2.268,2.987-3.934c1.039-2.911-0.126-5.059-2.529-6.825c-0.067-0.049-0.138-0.097-0.206-0.146
	C172.514,86.253,168.719,88.273,171.453,91.387z"/>
<path fill="#707372" d="M169.216,75.114c0.32,0.711,0.423,2.067,0.299,3.897c1.382,1.046,2.909,1.955,4.397,2.909
	c0.156-0.284,0.3-0.583,0.414-0.916C175.584,77.336,172.518,75.858,169.216,75.114z"/>
<path fill="#707372" d="M156.511,142.999c0.769-1.178,3.962-2.121,3.382-3.84"/>
<path fill="#707372" d="M148.927,157.881c-3.795,3.032,1.864,5.496,4.158,6.921c0.892,0.555-0.838,1.476-1.504,1.063
	c-1.708-1.062-7.133-3.198-6.116-6.016"/>
<path fill="#707372" d="M172.583,97.126c-2.315,1.561-4.552,3.521-5.041,5.734C169.646,101.592,172.591,99.676,172.583,97.126z"/>
<path fill="#BE3A34" d="M167.703,117.016c-0.473-1.019-1.599-1.773-2.453-2.461c-2.606-2.099-3.293-4.979-1.08-7.636
	c0.379-0.454,0.817-0.853,1.277-1.23c-0.132-0.46-0.172-0.94-0.139-1.428c-3.077,2.103-5.512,4.82-3.916,8.919
	c1.277,3.281,6.401,4.111,4.365,7.795c0.854-0.376,1.665-0.79,2.38-1.262C168.257,118.857,168.14,117.959,167.703,117.016z"/>
<path fill="#BE3A34" d="M173.965,94.486c-0.431-1.189-1.699-2.173-2.512-3.099c-2.734-3.114,1.061-5.133,2.92-7.257
	c-0.444-0.32-0.901-0.633-1.37-0.938c-1.693,1.869-4.1,2.824-4.471,5.88c-0.34,2.805,2.979,4.495,3.835,6.854
	c0.038,0.105,0.055,0.206,0.082,0.308c0.578-0.379,1.142-0.773,1.672-1.199C174.072,94.851,174.03,94.667,173.965,94.486z"/>
<path fill="#BE3A34" d="M161.747,140.852c0.088-0.049,0.191-0.119,0.29-0.199c-0.07-0.149-0.14-0.299-0.225-0.454
	c-0.658-1.211-1.606-2.153-2.651-3.001c0.255,0.629,0.5,1.275,0.731,1.962c0.58,1.719-2.613,2.662-3.382,3.84
	c-1.258,1.929-0.341,3.952-0.052,5.902c0.692-0.368,1.399-0.737,2.078-1.123C158.254,144.308,157.242,143.348,161.747,140.852z"/>
<path fill="#BE3A34" d="M164.691,122.443c-2.521,2.856-6.53,4.486-9.944,6.134c-0.206,0.681-0.185,1.397,0.131,2.145
	c0.87,0.821,1.597,1.68,2.225,2.585c1.08,0.849,2.451,1.763,3.706,2.795c-1.1-2.526-2.495-4.7-4.745-6.72
	c3.716-1.741,10.469-4.711,11.862-8.787c-0.849,0.388-1.729,0.719-2.576,1.024C165.163,121.881,164.947,122.154,164.691,122.443z"/>
<path fill="#BE3A34" d="M154.709,153.208c-0.294,0.216-0.612,0.414-0.941,0.605c0.115,0.381,0.321,0.729,0.586,1.053
	c0.805-0.412,1.592-0.853,2.316-1.386c1.63-1.198,1.984-3.003,1.913-4.921c-0.702,0.316-1.407,0.646-2.056,1.001
	C156.601,150.833,156.264,152.065,154.709,153.208z"/>
<path fill="#BE3A34" d="M145.465,159.849c-1.017,2.817,4.408,4.954,6.116,6.016c0.666,0.413,2.396-0.508,1.504-1.063
	c-2.294-1.425-7.953-3.889-4.158-6.921c1.133-0.905,2.442-1.557,3.766-2.195c-0.267-0.323-0.475-0.655-0.631-0.992
	C149.414,155.939,146.472,157.057,145.465,159.849z"/>
<path fill="#BE3A34" d="M169.216,75.114c3.302,0.744,6.368,2.222,5.11,5.891c-0.114,0.333-0.258,0.631-0.414,0.916
	c0.456,0.292,0.905,0.592,1.348,0.9c3.675-6.65-2.282-8.438-8.075-9.453c0.579,0.423,1.155,0.857,1.727,1.314
	C169.029,74.775,169.13,74.923,169.216,75.114z"/>
<path fill="#BE3A34" d="M172.583,97.126c0.008,2.55-2.937,4.466-5.041,5.734c-0.102,0.457-0.126,0.927-0.063,1.404
	c1.678-1.029,3.476-1.945,4.888-3.219c1.466-1.323,2.119-3.163,1.938-5.015c-0.025,0.016-0.052,0.034-0.077,0.05
	C173.689,96.405,173.134,96.754,172.583,97.126z"/>
<path fill="none" d="M110.104,98.643c33.808,14.946,35.942-11.388,35.942-11.388C117.934,69.817,110.104,98.643,110.104,98.643z"/>
<path fill="#BE3A34" d="M94.416,105.76L94.06,71.953c0.108,0,0.231-0.01,0.364-0.024c-6.345-0.503-32.884-14.116-72.605,3.938
	c-0.469,0.213-0.701,1.108-0.709,2.508C21.089,81.819,22.435,88.35,25,95.516C30.085,109.72,39.96,126.4,53.491,126.4
	c22.718,0,34.791-19.895,41.283-20.606C94.654,105.78,94.53,105.76,94.416,105.76z M44.625,87.255
	c28.114-17.438,35.943,11.388,35.943,11.388C46.76,113.589,44.625,87.255,44.625,87.255z"/>
<path fill="#A02D2D" d="M178.127,85.208c-0.854-0.9-1.836-1.669-2.867-2.387c-0.442-0.308-0.892-0.607-1.348-0.9
	c-1.488-0.955-3.016-1.863-4.397-2.909c0.124-1.83,0.021-3.186-0.299-3.897c-0.086-0.191-0.187-0.339-0.305-0.433
	c-0.571-0.457-1.147-0.891-1.727-1.314c-28.317-20.702-66.049-2.162-72.761-1.438c-0.132,0.014-0.256,0.024-0.364,0.024
	l0.356,33.807c0.114,0,0.238,0.021,0.358,0.034c6.588,0.712,21.299,20.606,38.076,20.606c23.235,0,34.752-31.75,36.482-45.558
	c1.21,0.807,2.468,1.562,3.671,2.348c0.469,0.306,0.926,0.618,1.37,0.938c0.068,0.049,0.139,0.097,0.206,0.146
	c2.403,1.766,3.568,3.914,2.529,6.825c-0.595,1.666-1.69,2.894-2.987,3.934c-0.53,0.426-1.094,0.82-1.672,1.199
	c-1.353,0.888-2.778,1.696-4.021,2.639c-1.52,1.152-2.979,3.328-3.119,5.389c-0.033,0.487,0.007,0.968,0.139,1.428
	c0.037,0.129,0.077,0.258,0.129,0.383c0.302,0.728,1.223,1.408,1.753,1.917c1.697,1.626,2.683,3.6,3.343,5.819
	c0.805,2.704-0.464,4.539-2.534,5.905c-0.715,0.472-1.526,0.886-2.38,1.262c-2.742,1.208-5.928,2.009-7.826,2.943
	c-2.74,1.348-6.656,4.411-4.793,7.8c1.32,2.401,3.877,3.738,6.022,5.479c1.045,0.848,1.993,1.79,2.651,3.001
	c0.085,0.155,0.154,0.305,0.225,0.454c1.67,3.563-0.646,5.502-3.5,7.126c-0.679,0.386-1.386,0.755-2.078,1.123
	c-1.569,0.834-3.055,1.668-3.914,2.706c-0.885,1.068-0.938,2.104-0.483,3.086c0.156,0.337,0.364,0.669,0.631,0.992
	c0.145,0.176,0.303,0.35,0.474,0.521c2.587,2.588,5.955,3.091,4.884,7.638c-0.088,0.37,1.794,0.099,1.9-0.355
	c0.556-2.358,0.161-3.978-1.676-5.577c-1.088-0.948-2.924-1.826-3.921-3.046c-0.265-0.324-0.471-0.672-0.586-1.053
	c-0.175-0.576-0.148-1.225,0.193-1.976c0.411-0.903,1.393-1.634,2.566-2.277c0.648-0.355,1.354-0.685,2.056-1.001
	c1.345-0.606,2.674-1.168,3.543-1.786c1.603-1.138,2.168-3.332,2.142-5.192c-0.03-2.195-1.617-3.965-3.459-5.479
	c-1.255-1.032-2.626-1.946-3.706-2.795c-0.17-0.134-0.334-0.267-0.488-0.397c-0.888-0.754-1.439-1.484-1.736-2.188
	c-0.315-0.747-0.337-1.464-0.131-2.145c0.991-3.267,7.126-5.711,10.156-6.797c0.147-0.053,0.297-0.106,0.446-0.161
	c0.848-0.306,1.728-0.637,2.576-1.024c2.428-1.109,4.582-2.692,4.878-5.569c0.288-2.813-1.805-5.785-3.65-7.68
	c-1.032-1.06-1.543-2.091-1.674-3.081c-0.063-0.478-0.039-0.947,0.063-1.404c0.489-2.213,2.726-4.174,5.041-5.734
	c0.551-0.372,1.106-0.721,1.645-1.045c0.025-0.016,0.052-0.034,0.077-0.05C177.69,93.951,181.62,88.886,178.127,85.208z
	 M110.104,98.643c0,0,7.829-28.825,35.942-11.388C146.047,87.255,143.912,113.589,110.104,98.643z"/>
</svg>
