<?xml version="1.0" encoding="utf-8"?>
<!-- Generator: Adobe Illustrator 15.1.0, SVG Export Plug-In  -->
<!DOCTYPE svg PUBLIC "-//W3C//DTD SVG 1.1//EN" "http://www.w3.org/Graphics/SVG/1.1/DTD/svg11.dtd" [
	<!ENTITY ns_flows "http://ns.adobe.com/Flows/1.0/">
]>
<svg version="1.1"
	 xmlns="http://www.w3.org/2000/svg" xmlns:xlink="http://www.w3.org/1999/xlink" xmlns:a="http://ns.adobe.com/AdobeSVGViewerExtensions/3.0/"
	 x="0px" y="0px" width="190px" height="190px" viewBox="0 0 190 190" enable-background="new 0 0 190 190" xml:space="preserve">
<defs>
</defs>
<rect display="none" fill="#EFEFEF" width="190" height="190"/>
<path fill="#707372" d="M108,183v-17h44v5.224c1-0.893,2-1.813,3-2.759V166h2.633c2.129-1,4.178-3,6.132-5H137v-16h38.617
	c1.313-2,2.548-4,3.697-6H155v-17h26v13.205c6-12.211,8.955-25.833,8.955-40.205c0-52.467-42.511-95-94.978-95
	C42.51,0,0.033,42.533,0.033,95C0.033,109.372,3,122.995,9,135.207V122h44v17H10.686c1.149,2,2.384,4,3.697,6H33v16h-6.765
	c1.955,2,4.003,4,6.132,5H53v14.22c2,0.763,3,1.487,5,2.167V166h44v17H58.862c11.141,4,23.342,7.122,36.138,7.122
	c12.795,0,24.996-3.122,36.138-7.122H108z M152,139h-44v-17h44V139z M89,116v-16h43v16H89z M102,122v17H58v-17H102z M181,116h-44
	v-16h44V116z M155,57h26v17h-26V57z M155,79h26v15h-26V79z M108,57h24v17h-24V57z M108,79h44v15h-44V79z M58,57h24v17H58V57z M58,79
	h44v15H58V79z M9,57h24v17H9V57z M9,79h44v15H9V79z M33,116H9v-16h24V116z M40,116v-16h42v16H40z M82,161H40v-16h42V161z M89,161
	v-16h43v16H89z"/>
<path fill="none" d="M110.356,105c0.045-5.938-0.414-12.495-4.145-16.317c-2.439-2.5-6.106-3.803-11.212-3.803
	c-4.846,0-8.399,1.188-10.864,3.721C80.304,92.54,79.667,99.475,79.646,105H95H110.356z"/>
<path fill="none" d="M89.482,121.615c0,2.19,0.985,4.078,2.764,5.085c-0.003,0.061-0.246,0.119-0.246,0.18v5.962
	c0,1.77,1.504,3.238,3,3.519c0.168,0.031,0.335,0.059,0.5,0.059c1.64,0,3.5-1.609,3.5-3.577v-5.962c0-0.098-0.305-0.188-0.313-0.282
	c1.678-1.032,2.518-2.868,2.518-4.982c0-3.237-2.624-5.861-5.861-5.861c-0.116,0-0.229,0.011-0.344,0.018
	C91.924,115.95,89.482,118.494,89.482,121.615z"/>
<path fill="none" d="M110.356,105c0.045-5.938-0.414-12.495-4.145-16.317c-2.439-2.5-6.106-3.803-11.212-3.803
	c-4.846,0-8.399,1.188-10.864,3.721C80.304,92.54,79.667,99.475,79.646,105H95H110.356z"/>
<path fill="#A02D2D" d="M116.122,105.031c-0.174-0.017-0.349-0.031-0.526-0.031h-1.783c0.442-9.642-0.873-23.188-18.813-23.188
	c-16.726,0-18.933,13.939-18.813,23.188h3.458c0.022-5.525,0.659-12.46,4.491-16.399C86.601,86.067,90.154,84.88,95,84.88
	c5.105,0,8.772,1.303,11.212,3.803c3.73,3.822,4.189,10.379,4.145,16.317H95v10.771c0.114-0.007,0.228-0.018,0.344-0.018
	c3.237,0,5.861,2.624,5.861,5.861c0,2.114-0.84,3.95-2.518,4.982c0.008,0.095,0.313,0.185,0.313,0.282v5.962
	c0,1.968-1.86,3.577-3.5,3.577c-0.165,0-0.332-0.027-0.5-0.059V145h20.596c3.626,0,6.404-2.896,6.404-6.521v-26.362
	C122,108.668,119.486,105.35,116.122,105.031z"/>
<path fill="#BE3A34" d="M92,132.842v-5.962c0-0.061,0.243-0.119,0.246-0.18c-1.779-1.007-2.764-2.895-2.764-5.085
	c0-3.121,3.442-5.665,6.518-5.844V105H79.646h-3.048C76.477,95.752,78.274,82.137,95,82.137c17.939,0,18.938,13.221,18.495,22.863
	h2.101c0.178,0,0.353,0.015,0.526,0.031c0.046-6.865-0.557-15.152-5.783-20.509c-3.531-3.619-8.692-5.41-15.339-5.41
	c-6.395,0-11.441,1.943-14.998,5.599c-5.316,5.466-6.114,13.849-6.129,20.32c-3.361,0.32-5.874,3.638-5.874,7.084v26.362
	c0,3.625,2.779,6.521,6.404,6.521H96v-8.64C94.504,136.08,92,134.611,92,132.842z"/>
<path fill="#EFEFEF" d="M89.482,121.615c0,2.19,0.985,4.078,2.764,5.085c-0.003,0.061-0.246,0.119-0.246,0.18v5.962
	c0,1.77,1.504,3.238,3,3.519c0.167,0.031,0.335,0.059,0.5,0.059c1.64,0,3.5-1.609,3.5-3.577v-5.962c0-0.098-0.305-0.188-0.313-0.282
	c1.678-1.032,2.518-2.868,2.518-4.982c0-3.237-2.624-5.861-5.862-5.861c-0.116,0-0.229,0.011-0.343,0.018
	C91.924,115.95,89.482,118.494,89.482,121.615z"/>
</svg>
