<?xml version="1.0" encoding="utf-8"?>
<!-- Generator: Adobe Illustrator 15.1.0, SVG Export Plug-In  -->
<!DOCTYPE svg PUBLIC "-//W3C//DTD SVG 1.1//EN" "http://www.w3.org/Graphics/SVG/1.1/DTD/svg11.dtd" [
	<!ENTITY ns_flows "http://ns.adobe.com/Flows/1.0/">
]>
<svg version="1.1"
	 xmlns="http://www.w3.org/2000/svg" xmlns:xlink="http://www.w3.org/1999/xlink" xmlns:a="http://ns.adobe.com/AdobeSVGViewerExtensions/3.0/"
	 x="0px" y="0px" width="190px" height="190px" viewBox="0 0 190 190" enable-background="new 0 0 190 190" xml:space="preserve">
<defs>
</defs>
<rect display="none" fill="#EFEFEF" width="190" height="190"/>
<path fill="#707372" d="M94.522,101c-0.027,0-0.054,0-0.081,0c-4.026,0-6.685-4.004-6.974-4.461
	c-0.515-0.81-0.274-1.857,0.536-2.371c0.807-0.515,1.879-0.263,2.396,0.545c0.518,0.803,2.262,2.895,4.097,2.912
	c1.289,0.058,2.583-0.973,3.901-2.937c0.536-0.796,1.614-1.008,2.411-0.471c0.797,0.535,1.009,1.562,0.474,2.357
	C99.284,99.547,97.011,101,94.522,101z"/>
<ellipse fill="#707372" cx="77.094" cy="60.473" rx="2.963" ry="4.609"/>
<ellipse fill="#707372" cx="112.49" cy="60.473" rx="2.963" ry="4.609"/>
<path fill="#707372" d="M95,0C42.533,0,0,42.533,0,95c0,34.312,18.191,64.371,45.454,81.068
	c8.74-34.949,25.544-69.704,21.055-74.396c-3.564-3.725-5.618-7.541-6.722-11.185c-2.671,18.58-29.312,33.058-25.711-18.158
	C37.191,28.002,72.089,42,72.089,42h0.331c0,0,20.877-16.233,45.492-0.353c0,0,34.896-13.864,38.011,30.465
	c3.573,50.818-22.547,37.089-25.638,18.823c-1.303,3.383-3.637,7.024-7.546,10.717c-4.725,4.466,13.615,39.254,23.802,73.159
	C172.692,157.889,190,128.467,190,95C190,42.533,147.467,0,95,0z"/>
<path fill="#707372" d="M94.898,71.977c-3.679,0-13.3,0.808-11.562,7.619c0.402,1.579,4.813,7.621,11.562,7.621
	c7.282,0,10.634-5.263,11.292-7.621C108.064,72.9,98.571,71.977,94.898,71.977z"/>
<path fill="#BE3A34" d="M50.346,104c0.133-3.703,3.168-6.667,6.904-6.667c3.736,0,6.771,2.964,6.904,6.667H146
	c0-2.711,0-10.181,0-12.882c0-4.966,20.03-1.886,20.03-1.886c-4.375-6.595-11.702-10.156-20.104-10.156
	c-9.08,0-16.913,4.923-21.098,12.923H46.116C41.969,92,39,94.258,39,98.404V104h8H50.346z"/>
<path fill="#A02D2D" d="M146,114.676c0-2.242,0-7.485,0-9.676c0,0,0-0.373,0-1H64.154c0.003,0.084,0.013,0.166,0.013,0.25
	c0,3.819-3.097,6.916-6.917,6.916c-3.82,0-6.917-3.097-6.917-6.916c0-0.084,0.01-0.166,0.013-0.25H47h-8v1v2.828
	c0,4.146,2.969,9.172,7.116,9.172h79.002c4.253,6,11.935,11.036,20.808,11.036c8.402,0,15.729-4.88,20.104-11.477
	C166.03,116.56,146,119.642,146,114.676z"/>
</svg>
