<?xml version="1.0" encoding="utf-8"?>
<!-- Generator: Adobe Illustrator 15.1.0, SVG Export Plug-In  -->
<!DOCTYPE svg PUBLIC "-//W3C//DTD SVG 1.1//EN" "http://www.w3.org/Graphics/SVG/1.1/DTD/svg11.dtd" [
	<!ENTITY ns_flows "http://ns.adobe.com/Flows/1.0/">
]>
<svg version="1.1"
	 xmlns="http://www.w3.org/2000/svg" xmlns:xlink="http://www.w3.org/1999/xlink" xmlns:a="http://ns.adobe.com/AdobeSVGViewerExtensions/3.0/"
	 x="0px" y="0px" width="339px" height="86px" viewBox="0 -0.333 339 86" enable-background="new 0 -0.333 339 86"
	 xml:space="preserve">
<defs>
</defs>
<rect display="none" fill="#222222" width="339" height="86"/>
<path fill="none" d="M64.877,61.882c0.01-0.005,0.018-0.017,0.028-0.023C64.895,61.865,64.886,61.876,64.877,61.882z"/>
<path fill="#BE3A34" d="M69.035,17.471c7.671-1.828,6.289-9.355,4.787-9.555c-2.195-0.293-5.671,0.831-8.438,1.504
	c-3.09,0.749-5.912-6.31-14.427-4.651c-6.119,1.192-7.343,4.549-8.388,8.469c-0.009,0.048-0.021,0.093-0.026,0.139
	c-0.228,1.454-0.312,2.919-0.222,4.345c0.081,1.421,0.348,2.813,0.884,3.994c0.541,1.179,1.365,2.074,2.458,2.538
	c0.543,0.234,1.149,0.386,1.794,0.437c0.635,0.054,1.354,0.054,1.999-0.027c1.314-0.139,2.446-0.599,3.132-1.538
	c0.704-0.943,0.948-2.37,0.934-3.806c0.002-1.454-0.248-2.946-0.572-4.446c0.857,1.287,1.456,2.742,1.825,4.3
	c0.17,0.782,0.264,1.6,0.218,2.45c-0.048,0.845-0.243,1.737-0.704,2.56c-0.444,0.827-1.166,1.524-1.968,1.987
	c-0.807,0.471-1.676,0.724-2.521,0.874c-0.859,0.128-1.665,0.185-2.539,0.125c-0.866-0.065-1.766-0.243-2.609-0.622
	c-0.841-0.377-1.629-0.934-2.238-1.628c-0.087-0.099-0.166-0.204-0.247-0.306c0.064,1.612,0.002,2.746-0.512,3.035
	c-12.547,7.095-18.561,16.685-18.561,32.891c0,6.516-1.098,9.384-6.955,9.384c-12.548,0-15.198,4.962-13.804,4.962
	c0,0,55.495,0,57.727,0c3.205,0,12.269,0,12.269,0s1.335-4.438-3.625-5.589c-6.366-1.476-6.762-8.453-5.995-12.066
	c0.985-4.623,6.587-11.229,5.612-18.059c-0.975-6.832-8.485-13.089-4.398-14.636c3.267-1.232,8.504-3.18,8.645-4.92
	c0.063-0.773-6.769,1.293-8.85-0.782C62.903,18.022,66.364,18.109,69.035,17.471z M59.179,52.68L39.147,66.125
	c-1.136,0.776-2.445,0.288-2.445-1.089V37.499c0-1.38,1.309-1.868,2.445-1.09l19.801,13.443
	C60.081,50.629,60.316,51.902,59.179,52.68z"/>
<path fill="#FFFFFF" d="M58.948,49.852L39.147,36.409c-1.136-0.777-2.445-0.29-2.445,1.09v27.536c0,1.377,1.309,1.865,2.445,1.089
	L59.179,52.68C60.316,51.902,60.081,50.629,58.948,49.852z"/>
<path fill="#707372" stroke="#707372" stroke-width="0.5" stroke-miterlimit="10" d="M114.479,48.118
	c0,8.209-6.112,15.87-14.683,15.87c-5.473,0-10.215-3.191-12.77-7.934v23.438c0,0.729-0.547,1.276-1.275,1.276
	c-0.73,0-1.277-0.547-1.277-1.276V34.075c0-0.64,0.546-1.277,1.277-1.277c0.729,0,1.275,0.637,1.275,1.277v6.201
	c2.555-4.742,7.297-8.024,12.77-8.024C108.367,32.251,114.479,39.911,114.479,48.118z M111.923,48.118
	c0-6.838-5.014-13.313-12.127-13.313c-7.204,0-12.222,6.475-12.222,13.313c0,6.842,5.019,13.315,12.222,13.315
	C106.91,61.434,111.923,54.96,111.923,48.118z"/>
<path fill="#707372" stroke="#707372" stroke-width="0.5" stroke-miterlimit="10" d="M135.269,34.075
	c0,0.821-0.455,1.276-1.185,1.368c-7.478,1.094-10.854,7.204-10.854,14.318v12.221c0,0.727-0.546,1.276-1.274,1.276
	c-0.731,0-1.277-0.549-1.277-1.276V34.166c0-0.73,0.546-1.277,1.277-1.277c0.729,0,1.274,0.547,1.274,1.277v5.655
	c2.098-3.557,6.292-6.932,10.671-6.932C134.539,32.889,135.269,33.344,135.269,34.075z"/>
<path fill="#707372" stroke="#707372" stroke-width="0.5" stroke-miterlimit="10" d="M166.643,48.027
	c0,8.3-6.203,15.868-14.773,15.868c-8.574,0-14.684-7.568-14.684-15.868c0-8.206,6.11-15.868,14.684-15.868
	C160.439,32.159,166.643,39.821,166.643,48.027z M163.998,48.027c0-6.747-4.926-13.222-12.129-13.222
	c-7.114,0-12.131,6.475-12.131,13.222c0,6.842,5.018,13.315,12.131,13.315C159.072,61.342,163.998,54.869,163.998,48.027z"/>
<path fill="#707372" stroke="#707372" stroke-width="0.5" stroke-miterlimit="10" d="M191.535,34.075c0,0.182-0.09,0.456-0.18,0.729
	l-9.121,13.222l9.121,13.315c0.09,0.182,0.18,0.456,0.18,0.729c0,0.729-0.545,1.278-1.275,1.278c-0.365,0-0.822-0.184-1.004-0.548
	l-8.57-12.493l-8.484,12.493c-0.271,0.365-0.639,0.548-1.092,0.548c-0.73,0-1.277-0.548-1.277-1.278c0-0.273,0.09-0.547,0.182-0.729
	l9.119-13.315l-9.119-13.222c-0.092-0.274-0.182-0.547-0.182-0.729c0-0.731,0.547-1.277,1.277-1.277c0.453,0,0.82,0.184,1.092,0.546
	l8.484,12.405l8.57-12.405c0.182-0.362,0.639-0.546,1.004-0.546C190.99,32.798,191.535,33.344,191.535,34.075z"/>
<path fill="#BE3A34" stroke="#BE3A34" stroke-width="0.5" stroke-miterlimit="10" d="M245.068,45.749v16.323
	c0,0.729-0.637,1.278-1.275,1.278c-0.732,0-1.277-0.548-1.277-1.278V45.749c0-5.473-3.1-10.853-9.211-10.853
	c-7.66,0-10.578,8.208-10.578,14.591v12.584c0,0.729-0.639,1.278-1.279,1.278c-0.729,0-1.277-0.548-1.277-1.278V45.749
	c0-5.473-3.1-10.853-9.211-10.853c-7.748,0-10.941,6.108-10.668,14.228c0,0.182,0.09,0.546,0,0.638v12.311
	c0,0.729-0.549,1.278-1.277,1.278c-0.727,0-1.275-0.548-1.275-1.278V34.166c0-0.73,0.549-1.277,1.275-1.277
	c0.729,0,1.277,0.547,1.277,1.277v4.651c2.189-3.921,6.109-6.476,10.668-6.476c5.201,0,9.211,3.284,10.854,8.117
	c2.098-4.742,6.201-8.117,11.492-8.117C240.783,32.341,245.068,38.817,245.068,45.749z"/>
<path fill="#BE3A34" stroke="#BE3A34" stroke-width="0.5" stroke-miterlimit="10" d="M280.816,34.075v27.815
	c0,0.729-0.549,1.275-1.277,1.275c-0.73,0-1.275-0.546-1.275-1.275v-5.836c-2.555,4.65-7.295,7.934-12.768,7.934
	c-8.572,0-14.686-7.661-14.686-15.87c0-8.207,6.113-15.867,14.686-15.867c5.473,0,10.213,3.283,12.768,7.934v-6.11
	c0-0.64,0.545-1.277,1.275-1.277C280.268,32.798,280.816,33.436,280.816,34.075z M277.625,48.118
	c0-6.838-4.926-13.313-12.129-13.313c-7.113,0-12.131,6.475-12.131,13.313c0,6.842,5.018,13.315,12.131,13.315
	C272.699,61.434,277.625,54.96,277.625,48.118z"/>
<path fill="#BE3A34" stroke="#BE3A34" stroke-width="0.5" stroke-miterlimit="10" d="M302.977,32.889
	c0.729,0,1.277,0.639,1.277,1.277c0,0.73-0.549,1.277-1.277,1.277h-6.84v26.811c0,0.639-0.549,1.278-1.277,1.278
	c-0.727,0-1.275-0.64-1.275-1.278V35.443h-6.568c-0.73,0-1.275-0.547-1.275-1.277c0-0.638,0.545-1.277,1.275-1.277h6.568v-9.85
	c0-0.73,0.549-1.276,1.275-1.276c0.729,0,1.277,0.546,1.277,1.276v9.85H302.977z"/>
<path fill="#BE3A34" stroke="#BE3A34" stroke-width="0.5" stroke-miterlimit="10" d="M334.986,48.118
	c0,0.729-0.635,1.277-1.367,1.277h-25.445c0.641,6.292,5.383,12.038,12.037,12.038c4.564,0,7.936-1.733,10.49-5.379
	c0.273-0.366,0.637-0.638,1.094-0.638c0.729,0,1.277,0.546,1.277,1.275c0,0.273-0.092,0.456-0.184,0.638
	c-2.553,4.468-7.658,6.658-12.678,6.658c-8.57,0-14.682-7.661-14.682-15.87c0-8.207,6.111-15.867,14.682-15.867
	C328.785,32.251,334.986,39.911,334.986,48.118z M332.252,46.842c-0.547-6.292-5.383-12.037-12.041-12.037
	c-6.654,0-11.396,5.746-12.037,12.037H332.252z"/>
</svg>
