<?xml version="1.0" encoding="utf-8"?>
<!-- Generator: Adobe Illustrator 15.1.0, SVG Export Plug-In  -->
<!DOCTYPE svg PUBLIC "-//W3C//DTD SVG 1.1//EN" "http://www.w3.org/Graphics/SVG/1.1/DTD/svg11.dtd" [
	<!ENTITY ns_flows "http://ns.adobe.com/Flows/1.0/">
]>
<svg version="1.1"
	 xmlns="http://www.w3.org/2000/svg" xmlns:xlink="http://www.w3.org/1999/xlink" xmlns:a="http://ns.adobe.com/AdobeSVGViewerExtensions/3.0/"
	 x="0px" y="0px" width="198px" height="193px" viewBox="0 -1.729 198 193" enable-background="new 0 -1.729 198 193"
	 xml:space="preserve">
<defs>
</defs>
<path fill="#FFFFFF" d="M120.628,168.185c0-0.02,0.03-0.04,0-0.061C120.597,168.145,120.628,168.165,120.628,168.185z"/>
<path fill="#BE3A34" d="M182.282,35.234c20.863-4.984,17.111-25.441,13.02-25.984c-5.962-0.801-15.406,2.258-22.934,4.101
	c-8.404,2.035-16.079-17.177-39.245-12.662c-16.623,3.244-19.958,12.376-22.797,23.037c-0.019,0.129-0.063,0.249-0.072,0.369
	c-0.618,3.962-0.848,7.961-0.61,11.832c0.222,3.87,0.95,7.638,2.405,10.845c1.484,3.216,3.715,5.649,6.682,6.911
	c1.475,0.627,3.124,1.05,4.884,1.188c1.731,0.148,3.686,0.148,5.428-0.082c3.585-0.37,6.652-1.622,8.541-4.184
	c1.898-2.552,2.562-6.423,2.515-10.33c0.027-3.962-0.671-8.026-1.538-12.108c2.323,3.512,3.953,7.465,4.958,11.694
	c0.461,2.129,0.709,4.359,0.589,6.671c-0.128,2.293-0.653,4.718-1.916,6.957c-1.198,2.258-3.171,4.146-5.354,5.4
	c-2.201,1.289-4.561,1.971-6.844,2.386c-2.342,0.341-4.535,0.506-6.914,0.323c-2.339-0.167-4.791-0.655-7.095-1.687
	c-2.283-1.023-4.423-2.516-6.081-4.415c-0.248-0.276-0.441-0.561-0.663-0.838c0.167,4.386,0,7.465-1.4,8.247
	C73.725,82.211,57.37,108.287,57.37,152.352c0,17.72-2.995,25.522-18.917,25.522c-34.121,0-41.335,13.492-37.54,13.492
	c0,0,150.898,0,156.98,0c8.717,0,33.365,0,33.365,0s3.622-12.082-9.87-15.195c-17.312-4.008-18.381-22.99-16.3-32.813
	c2.7-12.577,17.922-30.547,15.269-49.114c-2.653-18.577-23.073-35.587-11.961-39.796c8.885-3.347,23.128-8.653,23.499-13.381
	c0.183-2.101-18.394,3.529-24.051-2.119C165.614,36.727,175.022,36.958,182.282,35.234z M119.628,168.064v-0.002
	c-55.173-36.548-44.09-69.864-30.941-74.122c19.275-6.241,30.288,14.482,31.736,16.964c1.586-2.482,12.205-23.539,30.168-16.964
	C163.57,98.691,174.801,131.515,119.628,168.064z"/>
</svg>
