<?xml version="1.0" encoding="utf-8"?>
<!-- Generator: Adobe Illustrator 15.1.0, SVG Export Plug-In  -->
<!DOCTYPE svg PUBLIC "-//W3C//DTD SVG 1.1//EN" "http://www.w3.org/Graphics/SVG/1.1/DTD/svg11.dtd" [
	<!ENTITY ns_flows "http://ns.adobe.com/Flows/1.0/">
]>
<svg version="1.1"
	 xmlns="http://www.w3.org/2000/svg" xmlns:xlink="http://www.w3.org/1999/xlink" xmlns:a="http://ns.adobe.com/AdobeSVGViewerExtensions/3.0/"
	 x="0px" y="0px" width="49px" height="50px" viewBox="0 0 49 50" enable-background="new 0 0 49 50" xml:space="preserve">
<defs>
</defs>
<path fill="#FFFFFF" d="M41.032,15.379c-0.945-0.947-3.85-3.849-3.85-3.849s-2.822-2.822-3.919-3.918
	c-1.638-1.638,6.156-7.4,6.156-7.4c-3.615-0.733-7.082,0.459-9.854,3.23c-2.994,2.994-3.964,7.018-2.571,11.169L1.04,40.567
	c-1.368,1.367-1.396,2.735-0.029,4.103l1.516,1.515l1.592,1.593c1.368,1.368,3.871,2.475,5.239,1.107l26.052-26.051
	c3.48,0.678,7.499-0.371,10.426-3.297c2.77-2.771,3.367-6.659,2.634-10.277C48.469,9.26,42.67,17.017,41.032,15.379z M10.424,44.204
	c-1.416,1.416-3.711,1.416-5.126,0c-0.136-0.135-0.253-0.279-0.361-0.429c-1.037-1.417-0.921-3.416,0.361-4.697
	c1.279-1.281,3.279-1.398,4.696-0.359c0.148,0.106,0.294,0.225,0.429,0.36C11.839,40.494,11.839,42.789,10.424,44.204z"/>
</svg>
