<?xml version="1.0" encoding="utf-8"?>
<!-- Generator: Adobe Illustrator 15.1.0, SVG Export Plug-In  -->
<!DOCTYPE svg PUBLIC "-//W3C//DTD SVG 1.1//EN" "http://www.w3.org/Graphics/SVG/1.1/DTD/svg11.dtd" [
	<!ENTITY ns_flows "http://ns.adobe.com/Flows/1.0/">
]>
<svg version="1.1"
	 xmlns="http://www.w3.org/2000/svg" xmlns:xlink="http://www.w3.org/1999/xlink" xmlns:a="http://ns.adobe.com/AdobeSVGViewerExtensions/3.0/"
	 x="0px" y="0px" width="100px" height="100px" viewBox="0 0 100 100" enable-background="new 0 0 100 100" xml:space="preserve">
<defs>
</defs>
<circle fill="#DDDDDD" cx="50" cy="50" r="50"/>
<path fill="#C1C1C1" d="M63.542,98.143C84.5,92.416,99.193,74.427,99.957,51.706L80.751,32.501L77.25,35.75L41.5,64.875L38.834,74.5
	L63.542,98.143z"/>
<path fill="#4EEA6F" d="M41.502,75.167c-1.246,0-2.492-0.463-3.459-1.39l-17.75-17.009c-1.994-1.911-2.061-5.076-0.15-7.07
	c1.912-1.993,5.076-2.06,7.069-0.15l14.282,13.686l32.038-30.837c1.99-1.915,5.156-1.854,7.07,0.135
	c1.915,1.99,1.854,5.155-0.135,7.07L44.969,73.77C44.002,74.701,42.752,75.167,41.502,75.167z"/>
</svg>
