<?xml version="1.0" encoding="utf-8"?>
<!-- Generator: Adobe Illustrator 15.1.0, SVG Export Plug-In  -->
<!DOCTYPE svg PUBLIC "-//W3C//DTD SVG 1.1//EN" "http://www.w3.org/Graphics/SVG/1.1/DTD/svg11.dtd" [
	<!ENTITY ns_flows "http://ns.adobe.com/Flows/1.0/">
]>
<svg version="1.1"
	 xmlns="http://www.w3.org/2000/svg" xmlns:xlink="http://www.w3.org/1999/xlink" xmlns:a="http://ns.adobe.com/AdobeSVGViewerExtensions/3.0/"
	 x="0px" y="0px" width="354px" height="400px" viewBox="108.153 0 354 400" enable-background="new 108.153 0 354 400"
	 xml:space="preserve">
<defs>
</defs>
<rect display="none" fill="#DDDBDB" width="600" height="400"/>
<rect x="353" y="154" fill="#F7F7F7" width="34" height="245"/>
<path fill="#CCCCCC" d="M200.276,161.339c0,0-118.152,13.676-86.843,52.024c31.46,38.529,171.332-1.491,180.788-35.878
	L200.276,161.339z"/>
<rect x="353" y="154" fill="#CCCCCC" width="16" height="245"/>
<path fill="#F7F7F7" d="M245.362,42.849l174.025-13.225c52.762,0,41.241,74.029,41.241,115.909l-166.755,32.744L245.362,42.849z"/>
<path fill="#A5A5A5" d="M293.873,178.276c0,0,17.38-135.428-46.086-135.428c-47.167,0-49.68,80.862-47.86,119.281L293.873,178.276z"
	/>
<path fill="none" d="M311.457,111.271c0,2.841,2.313,5.154,5.154,5.154s5.154-2.313,5.154-5.154c0-2.842-2.313-5.154-5.154-5.154
	S311.457,108.43,311.457,111.271z"/>
<path fill="#A5A5A5" d="M314,17v83.56c-6,1.423-8.244,5.686-8.244,10.712c0,6.186,4.85,11.218,11.036,11.218
	c6.186,0,11.458-5.032,11.458-11.218c0-5.243-4.25-9.645-8.25-10.869V17H314z M321.766,111.271c0,2.841-2.313,5.154-5.154,5.154
	s-5.154-2.313-5.154-5.154c0-2.842,2.313-5.154,5.154-5.154S321.766,108.43,321.766,111.271z"/>
<polygon fill="#BE3A34" points="342,17 342,0 314,0 314,10.915 314,17 319.34,17 "/>
<polygon fill="#AF3333" points="283.228,163.812 151.647,173.35 146.156,97.589 214.633,129.905 277.737,88.049 "/>
<polygon fill="#BE3A34" points="151.534,173.362 214.854,130.922 283.634,163.784 "/>
<polygon fill="#932A2A" points="212.327,96.042 146.024,97.364 215.154,135.08 278.124,87.788 "/>
<polygon fill="#BE3A34" points="212.076,92.577 146.024,97.364 214.802,130.229 278.124,87.788 "/>
<path fill="none" d="M228.864,146.305c0.005-0.003,0.009-0.011,0.015-0.016C228.872,146.293,228.868,146.301,228.864,146.305z"/>
<path fill="#FFFFFF" d="M228.462,118.654c4.607-1.639,3.253-6.186,2.314-6.209c-1.373-0.033-3.44,0.891-5.101,1.491
	c-1.855,0.667-4.064-3.495-9.203-1.904c-3.692,1.143-4.223,3.293-4.605,5.779c-0.002,0.03-0.008,0.059-0.007,0.088
	c-0.043,0.912,0.003,1.82,0.153,2.693c0.146,0.871,0.402,1.71,0.812,2.402c0.411,0.692,0.979,1.188,1.683,1.4
	c0.351,0.109,0.734,0.161,1.136,0.15c0.394-0.009,0.838-0.056,1.229-0.15c0.8-0.173,1.469-0.532,1.829-1.156
	c0.37-0.628,0.426-1.525,0.321-2.408c-0.095-0.896-0.349-1.798-0.648-2.703c0.614,0.737,1.08,1.594,1.411,2.529
	c0.158,0.471,0.27,0.969,0.298,1.496c0.026,0.524-0.034,1.087-0.264,1.625c-0.218,0.54-0.617,1.017-1.081,1.356
	c-0.466,0.344-0.984,0.558-1.496,0.706c-0.52,0.138-1.013,0.226-1.556,0.247c-0.538,0.018-1.104-0.031-1.649-0.209
	c-0.543-0.176-1.066-0.467-1.488-0.854c-0.061-0.054-0.115-0.114-0.173-0.171c0.147,0.989,0.185,1.691-0.113,1.904
	c-7.26,5.21-10.327,11.522-9.246,21.51c0.435,4.016-0.051,5.857-3.661,6.249c-7.735,0.837-9.037,4.072-8.178,3.979
	c0,0,34.206-3.702,35.581-3.852c1.975-0.213,7.562-0.818,7.562-0.818s0.527-2.825-2.607-3.203c-4.022-0.484-4.732-4.758-4.5-7.037
	c0.299-2.916,3.312-7.361,2.254-11.506c-1.057-4.146-6.103-7.5-3.687-8.727c1.931-0.977,5.029-2.527,5-3.609
	c-0.014-0.481-4.086,1.249-5.508,0.108C224.721,119.403,226.86,119.226,228.462,118.654z M224.737,141.013l-11.451,9.624
	c-0.648,0.553-1.488,0.34-1.58-0.509l-1.836-16.973c-0.092-0.85,0.683-1.239,1.434-0.835l13.101,6.965
	C225.157,139.688,225.387,140.458,224.737,141.013z"/>
</svg>
