<?xml version="1.0" encoding="utf-8"?>
<!-- Generator: Adobe Illustrator 15.1.0, SVG Export Plug-In  -->
<!DOCTYPE svg PUBLIC "-//W3C//DTD SVG 1.1//EN" "http://www.w3.org/Graphics/SVG/1.1/DTD/svg11.dtd" [
	<!ENTITY ns_flows "http://ns.adobe.com/Flows/1.0/">
]>
<svg version="1.1"
	 xmlns="http://www.w3.org/2000/svg" xmlns:xlink="http://www.w3.org/1999/xlink" xmlns:a="http://ns.adobe.com/AdobeSVGViewerExtensions/3.0/"
	 x="0px" y="0px" width="311px" height="400px" viewBox="190.202 0 311 400" enable-background="new 190.202 0 311 400"
	 xml:space="preserve">
<defs>
</defs>
<rect display="none" fill="#D3CDCD" width="600" height="400"/>
<g>
	<g>
		<path fill="#FFFFFF" d="M259.924,153.423c0.56,0,2.107-0.846,0.818-0.846C260.183,152.577,258.636,153.423,259.924,153.423
			L259.924,153.423z"/>
	</g>
</g>
<path fill="none" d="M351.732,367.005c0.024-0.013,0.044-0.042,0.069-0.06C351.774,366.963,351.752,366.992,351.732,367.005z"/>
<path fill="#BE3A34" d="M292.813,280.154c-28.844,13.346-47.09,42.331-47.09,83.448c0,16.531-2.787,23.809-17.646,23.809
	c-31.838,0-38.563,12.589-35.024,12.589c0,0,140.799,0,146.46,0c8.132,0,31.13,0,31.13,0s3.385-11.261-9.197-14.18
	c-16.154-3.744-17.155-21.444-15.213-30.614c2.503-11.729,16.715-28.488,14.239-45.82c-2.475-17.333-3.503-18.886-0.026-18.172
	c14.878,6.987,32.351,4.904,26.556,2.17c-1.469-0.692-9.213-3.47-9.213-3.47c16.796,6.161,32.202-9.543,29.754-12.507
	c-3.574-4.336-11.975-8.248-18.281-11.773c-7.037-3.945-0.096-21.938-18.788-33.56c-13.435-8.349-21.507-4.224-30.216,1.261
	c-0.099,0.074-0.199,0.135-0.29,0.213c-2.931,2.311-5.616,4.89-7.913,7.693c-2.305,2.785-4.211,5.829-5.254,8.952
	c-1.03,3.127-1.044,6.213,0.186,8.961c0.606,1.375,1.472,2.702,2.581,3.91c1.085,1.198,2.424,2.441,3.764,3.401
	c2.681,2.011,5.579,3.113,8.476,2.55c2.94-0.535,5.858-2.769,8.31-5.464c2.515-2.699,4.626-5.902,6.613-9.249
	c-0.629,3.872-2.027,7.61-4.032,11.143c0,0-2.271,3.43-3.826,4.932c-1.548,1.488-3.452,2.81-5.729,3.544
	c-2.253,0.77-4.799,0.819-7.09,0.293c-2.313-0.518-4.366-1.547-6.193-2.729c-1.819-1.244-3.414-2.53-4.933-4.149
	c-1.502-1.619-2.865-3.5-3.779-5.661c-0.914-2.155-1.416-4.548-1.35-6.892c0.011-0.331,0.045-0.665,0.07-0.992
	c-2.663,3.106-3.853,5.663-4.73,6.876C307.931,270.618,299.626,277.002,292.813,280.154z"/>
<path fill="#A4A4A4" d="M454.327,58.518c-3.137,0-6.199,0.314-9.164,0.9C442.601,26.179,414.839,0,380.941,0
	c-29.084,0-53.659,19.274-61.671,45.744c-9.796-8.192-22.408-13.128-36.177-13.128c-30.773,0-55.778,24.634-56.409,55.258
	c-1.321-0.164-2.662-0.257-4.027-0.257c-17.925,0-32.456,14.531-32.456,32.457c0,17.234,13.434,31.323,30.4,32.384
	c0.104,0.012,0.211,0.016,0.316,0.024c0.046,0.002,0.092,0.24,0.139,0.243c0.266,0.019,0.531,0.275,0.801,0.275h232.149
	c0.036,0,0.071-0.24,0.107-0.241c0.071,0.001,0.141-0.112,0.212-0.112c25.961,0,47.007-21.104,47.007-47.064
	C501.334,79.622,480.288,58.518,454.327,58.518z"/>
<path fill="#FFFFFF" d="M252,172c0,0-9,16.5,0,16.5C262,188.5,252,172,252,172z"/>
<path fill="#FFFFFF" d="M412,219c0,0-9,16.5,0,16.5C422,235.5,412,219,412,219z"/>
<path fill="#FFFFFF" d="M463,184c0,0-9,16.5,0,16.5C473,200.5,463,184,463,184z"/>
<path fill="#FFFFFF" d="M356,164c0,0-9,16.5,0,16.5C366,180.5,356,164,356,164z"/>
<path fill="#FFFFFF" d="M293,219c0,0-9,16.5,0,16.5C303,235.5,293,219,293,219z"/>
<path fill="#FFFFFF" d="M433,297c0,0-9,16.5,0,16.5C443,313.5,433,297,433,297z"/>
<path fill="#FFFFFF" d="M467,345c0,0-9,16.5,0,16.5C477,361.5,467,345,467,345z"/>
<path fill="#FFFFFF" d="M223,324c0,0-9,16.5,0,16.5C233,340.5,223,324,223,324z"/>
<path fill="#FFFFFF" d="M408,369c0,0-9,16.5,0,16.5C418,385.5,408,369,408,369z"/>
<path fill="#FFFFFF" d="M205,242c0,0-9,16.5,0,16.5C215,258.5,205,242,205,242z"/>
</svg>
