<?xml version="1.0" encoding="utf-8"?>
<!-- Generator: Adobe Illustrator 15.1.0, SVG Export Plug-In  -->
<!DOCTYPE svg PUBLIC "-//W3C//DTD SVG 1.1//EN" "http://www.w3.org/Graphics/SVG/1.1/DTD/svg11.dtd" [
	<!ENTITY ns_flows "http://ns.adobe.com/Flows/1.0/">
]>
<svg version="1.1"
	 xmlns="http://www.w3.org/2000/svg" xmlns:xlink="http://www.w3.org/1999/xlink" xmlns:a="http://ns.adobe.com/AdobeSVGViewerExtensions/3.0/"
	 x="0px" y="0px" width="164px" height="368px" viewBox="0.005 0 164 368" enable-background="new 0.005 0 164 368"
	 xml:space="preserve">
<defs>
</defs>
<polygon fill="none" points="83.264,29.065 6.838,104.761 52.674,248.39 15.95,106.771 86.585,30.897 "/>
<path fill="#F2F2F2" d="M142.702,54.575c-2.694,4.887-5.257,9.301-7.661,13.281c7.624,3.79,16.873,1.073,21.104-6.596l-13.137-7.244
	C142.904,54.204,142.806,54.387,142.702,54.575z"/>
<path fill="#FFFFFF" d="M150.414,39.867c-2.165,4.357-4.625,9.087-7.406,14.149l13.137,7.244
	C160.382,53.577,157.722,44.284,150.414,39.867z"/>
<path fill="#0C0F14" d="M143.007,54.017c2.781-5.063,5.241-9.792,7.406-14.149c10.113-20.357,13.801-32.592,13.801-32.592
	c-23.775-13.111-53.297-8.015-68.778,11.372l-6.36-3.504c-2.407-1.33-5.464-0.446-6.792,1.963l-2.413,4.376
	c-0.533,0.966-0.695,2.033-0.561,3.055L0,103.083l70.005,219.381v29.297h-38.99c-2.761,0-5.01,2.238-5.01,5v6
	c0,2.762,2.249,5,5.01,5h85c2.762,0,4.99-2.238,4.99-5v-6c0-2.762-2.228-5-4.99-5h-40.01v-30.23l-1.288-4.052L20.371,107.891
	l66.201-71.109c-5.402,22.421,6.041,47.563,28.357,59.87c0,0,8.029-8.8,20.111-28.795c2.404-3.98,4.967-8.395,7.662-13.281
	C142.806,54.387,142.904,54.204,143.007,54.017z M52.674,248.39L6.838,104.761l76.426-75.695l3.321,1.832L15.95,106.771
	L52.674,248.39z"/>
</svg>
