<?xml version="1.0" encoding="utf-8"?>
<!-- Generator: Adobe Illustrator 15.1.0, SVG Export Plug-In  -->
<!DOCTYPE svg PUBLIC "-//W3C//DTD SVG 1.1//EN" "http://www.w3.org/Graphics/SVG/1.1/DTD/svg11.dtd" [
	<!ENTITY ns_flows "http://ns.adobe.com/Flows/1.0/">
]>
<svg version="1.1"
	 xmlns="http://www.w3.org/2000/svg" xmlns:xlink="http://www.w3.org/1999/xlink" xmlns:a="http://ns.adobe.com/AdobeSVGViewerExtensions/3.0/"
	 x="0px" y="0px" width="591px" height="389px" viewBox="0 10.72 591 389" enable-background="new 0 10.72 591 389"
	 xml:space="preserve">
<defs>
</defs>
<rect display="none" fill="#D3CDCD" width="600" height="400"/>
<path fill="#BE3A34" d="M399.138,271.826c0,0,3.151,15.611,0.173,27.959c-1.376,5.707,7.95,7.036,9.258,0.998
	c2.906-13.432,9.986-31.697,8.748-46.436c-0.362-4.325,25.783-0.691,19.613-31.219c0,0-10.057,24.107-22.883,18.535
	c-2.792-1.208-32.707-26.166-75.721,12.603c-0.467,0.721-2.117,0.716-4.45,0.484c0.142,0.124,0.288,0.25,0.424,0.383
	c0.956,0.944,1.697,2.133,2.171,3.388c0.479,1.257,0.659,2.574,0.679,3.838c0.016,1.273-0.138,2.438-0.397,3.673
	c-0.286,1.213-0.729,2.454-1.482,3.583c-0.737,1.127-1.813,2.115-3.05,2.688c-1.234,0.599-2.545,0.807-3.774,0.804
	c-1.239-0.007-2.417-0.212-3.538-0.523c-2.229-0.669-4.287-1.662-6.084-3.018c2.15,0.6,4.292,1.087,6.402,1.209
	c2.083,0.145,4.176-0.087,5.605-1.031c1.419-0.914,2.182-2.519,2.495-4.413c0.174-0.928,0.237-1.973,0.211-2.898
	c-0.02-0.94-0.188-1.832-0.481-2.64c-0.579-1.626-1.807-2.898-3.474-3.783c-1.669-0.88-3.663-1.385-5.721-1.624
	c-2.063-0.248-4.196-0.252-6.325-0.048c-0.066,0.004-0.133,0.018-0.204,0.026c-5.776,1.182-10.752,2.672-13.002,11.451
	c-3.133,12.215,6.87,16.911,5.519,21.332c-1.211,3.958-3.138,8.904-2.901,12.116c-0.151,5.096,11.309,5.049,17.816-3.574
	c1.842-2.438,3.207-5.884,5.097-7.995c4.115-4.604,8.231-9.933,16.47-8.479c8.237,1.455,2.646,11.569-3.147,18.05
	c-2.06,2.304,1.089,10.176,7.751,4.119c4.488-4.079,9.146-13.18,14.232-20.806C368.368,275.775,397.029,272.084,399.138,271.826z"/>
<path fill="#FFFFFF" d="M138.443,89.976c3.888-8.558,10.549-15.004,18.494-18.807c-2.208-8.843-1.565-18.463,2.498-27.406
	c9.556-21.042,34.36-30.352,55.403-20.795c4.192,1.904,7.908,4.42,11.112,7.384c14.466-18.236,39.973-25.033,62.125-14.972
	c21.468,9.75,33.079,32.291,29.941,54.511c0.65,0.264,1.303,0.531,1.949,0.825c26.886,12.212,38.782,43.908,26.571,70.794
	c-8.148,17.941-24.976,29.193-43.257,31.075c-0.468,1.306-0.979,2.604-1.562,3.89c-9.854,21.695-33.174,33.014-55.58,28.589
	c2.065,11.121,8.385,31.831,27.676,48.25c0,0-39.65-14.594-57.148-66.033c-10.617,3.506-22.528,3.188-33.512-1.8
	c-17.833-8.1-28.005-26.141-26.964-44.589C137.852,130.975,129.897,108.79,138.443,89.976z"/>
<polygon fill="#EAEAEA" points="284.971,153.915 180.688,140.01 190.721,64.773 237.95,108.554 295.003,78.677 "/>
<polygon fill="#CCCCCC" points="180.598,139.999 237.93,109.587 285.292,153.957 "/>
<polygon fill="#A5A5A5" points="242.549,74.951 190.66,64.531 237.379,113.718 295.354,78.49 "/>
<polygon fill="#CCCCCC" points="243.007,71.51 190.66,64.531 238.02,108.9 295.354,78.49 "/>
<path fill="#BE3A34" d="M224.419,94.745c0.266-8.38,5.479-13.131,13.662-13.131c7.914,0,13.194,3.827,13.194,11.019
	c0,10.426-10.428,10.889-10.428,19.797h-5.802c0-10.625,9.171-10.689,9.171-18.674c0-3.827-2.709-5.676-6.797-5.676
	c-4.288,0-6.863,2.243-7.061,6.732L224.419,94.745z M242.034,123.645c0,2.574-1.778,4.421-4.152,4.421
	c-2.375,0-4.16-1.847-4.16-4.421c0-2.507,1.785-4.288,4.16-4.288C240.256,119.357,242.034,121.138,242.034,123.645z"/>
<path fill="#A5A5A5" d="M5.008,392.15c-1.669,2.81-3.285,5.647-4.87,8.499l1.748,0.972c1.579-2.839,3.185-5.661,4.841-8.449
	L5.008,392.15z"/>
<path fill="#A5A5A5" d="M15.865,375.788c-1.979,2.616-3.86,5.303-5.662,8.036l1.67,1.101c1.781-2.702,3.637-5.353,5.587-7.931
	L15.865,375.788z"/>
<path fill="#A5A5A5" d="M28.989,361.12c-2.403,2.244-4.697,4.602-6.883,7.054l1.493,1.331c2.147-2.409,4.399-4.723,6.755-6.924
	L28.989,361.12z"/>
<path fill="#A5A5A5" d="M40.486,351.829c-1.349,0.939-2.675,1.91-3.979,2.913l1.219,1.585c1.278-0.982,2.579-1.935,3.902-2.856
	L40.486,351.829z"/>
<path fill="#A5A5A5" d="M63.517,343.071c-3.297,0.358-6.571,1.027-9.74,2.045l0.61,1.904c3.033-0.974,6.17-1.616,9.346-1.961
	L63.517,343.071z"/>
<path fill="#A5A5A5" d="M44.67,349.148c-1.438,0.824-2.845,1.739-4.184,2.681l1.143,1.642c1.325-0.931,2.65-1.793,4.038-2.588
	L44.67,349.148z"/>
<path fill="#A5A5A5" d="M83.241,343.868c-3.243-0.504-6.516-0.883-9.812-1.047l-0.099,1.998c3.208,0.159,6.413,0.529,9.604,1.025
	L83.241,343.868z"/>
<polygon fill="#A5A5A5" points="102.441,347.783 92.894,345.678 92.479,347.635 102.009,349.735 "/>
<path fill="#A5A5A5" d="M116.752,350.561c-1.597-0.237-3.19-0.508-4.781-0.803l-0.364,1.967c1.61,0.298,3.227,0.573,4.852,0.814
	L116.752,350.561z"/>
<path fill="#A5A5A5" d="M140.904,351.337c-3.213,0.223-6.443,0.277-9.676,0.223l-0.034,2c3.278,0.056,6.564,0,9.848-0.228
	L140.904,351.337z"/>
<path fill="#A5A5A5" d="M121.526,351.109c-1.6-0.082-3.161-0.319-4.774-0.549l-0.294,1.979c1.609,0.229,3.271,0.479,4.926,0.565
	L121.526,351.109z"/>
<path fill="#A5A5A5" d="M159.646,347.409c-2.962,1.179-6.049,2.054-9.191,2.682l0.394,1.961c3.242-0.648,6.446-1.554,9.536-2.784
	L159.646,347.409z"/>
<path fill="#A5A5A5" d="M175.192,336.656c-2.128,2.364-4.52,4.486-7.137,6.287l1.135,1.646c2.748-1.891,5.261-4.121,7.489-6.596
	L175.192,336.656z"/>
<path fill="#A5A5A5" d="M183.046,324.693c-0.678,1.416-1.459,2.856-2.252,4.232l1.727,1.01c0.831-1.445,1.605-2.869,2.334-4.389
	L183.046,324.693z"/>
<path fill="#A5A5A5" d="M184.178,301.712c1.048,2.99,1.701,6.111,1.81,9.256l1.999-0.072c-0.117-3.367-0.816-6.692-1.921-9.844
	L184.178,301.712z"/>
<path fill="#A5A5A5" d="M184.757,320.279c-0.458,1.508-1.035,2.982-1.71,4.414l1.809,0.854c0.713-1.513,1.326-3.078,1.815-4.686
	L184.757,320.279z"/>
<path fill="#A5A5A5" d="M174.416,285.309c2.039,2.49,3.941,5.087,5.612,7.816l1.706-1.043c-1.729-2.826-3.686-5.494-5.771-8.041
	L174.416,285.309z"/>
<path fill="#A5A5A5" d="M160.942,271.386c2.392,2.188,4.736,4.424,6.996,6.735l1.43-1.398c-2.293-2.345-4.663-4.605-7.076-6.813
	L160.942,271.386z"/>
<path fill="#A5A5A5" d="M149.913,261.921c1.297,0.938,2.5,1.936,3.728,3.019l1.309-1.513c-1.213-1.071-2.518-2.155-3.861-3.124
	L149.913,261.921z"/>
<path fill="#A5A5A5" d="M127.737,254.411c3.168,0.023,6.333,0.465,9.392,1.302l0.527-1.929c-3.222-0.883-6.561-1.349-9.904-1.373
	L127.737,254.411z"/>
<path fill="#A5A5A5" d="M145.904,259.342c1.384,0.779,2.721,1.645,4.009,2.579l1.176-1.618c-1.348-0.978-2.749-1.885-4.201-2.703
	L145.904,259.342z"/>
<path fill="#A5A5A5" d="M109.664,259.313c2.676-1.66,5.622-2.897,8.677-3.714l-0.516-1.933c-3.233,0.864-6.358,2.174-9.217,3.947
	L109.664,259.313z"/>
<path fill="#A5A5A5" d="M99.242,274.005c0.342-3.046,1.624-5.959,3.481-8.445l-1.604-1.194c-2.032,2.72-3.478,5.969-3.864,9.412
	L99.242,274.005z"/>
<path fill="#A5A5A5" d="M103.283,286.922c-0.953-1.244-1.788-2.57-2.453-3.969l-1.806,0.858c0.733,1.543,1.645,2.986,2.671,4.326
	L103.283,286.922z"/>
<path fill="#A5A5A5" d="M122.678,300.478c-2.955-1.276-5.839-2.708-8.58-4.36l-1.033,1.712c2.836,1.71,5.799,3.18,8.821,4.484
	L122.678,300.478z"/>
<path fill="#A5A5A5" d="M106.456,290.416c-1.149-1.087-2.219-2.25-3.172-3.494l-1.588,1.216c1.027,1.341,2.17,2.58,3.386,3.73
	L106.456,290.416z"/>
<path fill="#A5A5A5" d="M141.144,305.721c-3.188-0.436-6.344-1.056-9.424-1.929l-0.546,1.924c3.187,0.903,6.436,1.54,9.698,1.986
	L141.144,305.721z"/>
<path fill="#A5A5A5" d="M160.519,306.909c-3.255-0.077-6.5-0.154-9.733-0.323l-0.104,1.998c3.271,0.17,6.535,0.248,9.79,0.324
	L160.519,306.909z"/>
<path fill="#A5A5A5" d="M175.222,307.596c-1.637-0.155-3.274-0.269-4.911-0.357l-0.108,1.997c1.615,0.088,3.227,0.199,4.831,0.352
	L175.222,307.596z"/>
<path fill="#A5A5A5" d="M198.731,315.005c-2.772-1.88-5.804-3.358-8.947-4.459l-0.663,1.887c3,1.051,5.869,2.452,8.489,4.229
	L198.731,315.005z"/>
<path fill="#A5A5A5" d="M180.127,308.198c-1.632-0.253-3.269-0.448-4.906-0.603l-0.188,1.991c1.604,0.151,3.202,0.342,4.788,0.588
	L180.127,308.198z"/>
<path fill="#A5A5A5" d="M211.374,330.259c-0.634-1.533-1.347-3.047-2.191-4.51c-0.425-0.73-0.888-1.445-1.398-2.135
	c-0.515-0.702-1.082-1.323-1.599-1.942l-1.514,1.307c0.527,0.631,1.059,1.214,1.506,1.827c0.458,0.618,0.882,1.271,1.276,1.948
	c0.784,1.358,1.463,2.795,2.073,4.271L211.374,330.259z"/>
<polygon fill="#A5A5A5" points="217.239,348.996 214.556,339.601 212.638,340.166 215.318,349.556 "/>
<path fill="#A5A5A5" d="M222.341,362.44c-0.782-1.354-1.442-2.803-2.044-4.279l-1.854,0.751c0.627,1.536,1.318,3.06,2.165,4.527
	L222.341,362.44z"/>
<path fill="#A5A5A5" d="M242.91,368.122c-3.137,0.627-6.329,1.05-9.461,0.934l-0.08,1.998c3.384,0.123,6.696-0.326,9.936-0.972
	L242.91,368.122z"/>
<path fill="#A5A5A5" d="M225.11,366.07c-1.087-1.01-1.988-2.28-2.769-3.63l-1.733,0.999c0.848,1.461,1.841,2.887,3.142,4.099
	L225.11,366.07z"/>
<path fill="#A5A5A5" d="M261.272,362.191c-2.967,1.27-5.987,2.419-9.05,3.426l0.624,1.9c3.124-1.026,6.194-2.196,9.214-3.488
	L261.272,362.191z"/>
<path fill="#A5A5A5" d="M278.07,352.662c-1.375,0.892-2.748,1.863-4.041,2.804c-1.287,0.903-2.667,1.724-4.066,2.505l0.972,1.748
	c1.442-0.806,2.866-1.65,4.245-2.617c1.341-0.974,2.626-1.883,3.983-2.765L278.07,352.662z"/>
<path fill="#A5A5A5" d="M291.292,345.914c-1.555,0.574-3.083,1.214-4.583,1.913l0.846,1.813c1.451-0.677,2.929-1.295,4.428-1.849
	L291.292,345.914z"/>
<path fill="#A5A5A5" d="M315.804,343.266c-3.286-0.495-6.627-0.65-9.947-0.455l0.118,1.996c3.18-0.187,6.379-0.039,9.532,0.437
	L315.804,343.266z"/>
<path fill="#A5A5A5" d="M296.033,344.408c-1.604,0.43-3.185,0.935-4.741,1.506l0.691,1.877c1.5-0.552,3.023-1.038,4.565-1.451
	L296.033,344.408z"/>
<path fill="#A5A5A5" d="M334.516,349.674c-2.913-1.553-5.939-2.91-9.068-4.001l-0.658,1.889c3.021,1.053,5.953,2.367,8.786,3.877
	L334.516,349.674z"/>
<path fill="#A5A5A5" d="M350.719,360.9c-2.502-2.127-5.094-4.153-7.791-6.04l-1.146,1.639c2.639,1.847,5.183,3.834,7.642,5.925
	L350.719,360.9z"/>
<path fill="#A5A5A5" d="M361.468,370.864c-1.218-1.049-2.337-2.142-3.503-3.308l-1.404,1.424c1.135,1.136,2.347,2.319,3.598,3.396
	L361.468,370.864z"/>
<path fill="#A5A5A5" d="M382.815,380.507c-3.154-0.32-6.259-1.064-9.216-2.202l-0.718,1.867c3.12,1.2,6.403,1.987,9.729,2.324
	L382.815,380.507z"/>
<path fill="#A5A5A5" d="M365.231,373.809c-1.305-0.911-2.559-1.897-3.764-2.944l-1.31,1.512c1.253,1.089,2.561,2.117,3.926,3.07
	L365.231,373.809z"/>
<path fill="#A5A5A5" d="M401.659,378.194c-3.052,0.977-6.173,1.723-9.334,2.14l0.262,1.982c3.298-0.435,6.534-1.21,9.683-2.218
	L401.659,378.194z"/>
<path fill="#A5A5A5" d="M419.126,370.077c-2.744,1.648-5.627,3.162-8.522,4.55l0.854,1.808c2.975-1.426,5.866-2.942,8.704-4.646
	L419.126,370.077z"/>
<polygon fill="#A5A5A5" points="431.061,361.762 427.149,364.662 428.327,366.279 432.261,363.361 "/>
<path fill="#A5A5A5" d="M451.691,348.387c-3.031,1.359-5.911,3.005-8.676,4.789l1.084,1.681c2.705-1.746,5.497-3.339,8.409-4.645
	L451.691,348.387z"/>
<polygon fill="#A5A5A5" points="434.973,358.831 431.061,361.762 432.261,363.361 436.166,360.436 "/>
<path fill="#A5A5A5" d="M471.185,344.815c-3.328-0.266-6.7-0.078-9.986,0.536l0.371,1.966c3.113-0.582,6.3-0.761,9.463-0.508
	L471.185,344.815z"/>
<path fill="#A5A5A5" d="M490.218,350.189c-2.995-1.356-6.066-2.58-9.242-3.534l-0.574,1.915c3.062,0.921,6.055,2.11,8.99,3.44
	L490.218,350.189z"/>
<path fill="#A5A5A5" d="M503.295,356.982c-1.421-0.805-2.848-1.601-4.286-2.38l-0.953,1.758c1.424,0.771,2.841,1.562,4.253,2.362
	L503.295,356.982z"/>
<path fill="#A5A5A5" d="M524.522,368.944c-2.884-1.452-5.719-3.023-8.539-4.631l-0.991,1.737c2.836,1.616,5.699,3.203,8.631,4.68
	L524.522,368.944z"/>
<polygon fill="#A5A5A5" points="507.538,359.42 503.295,356.982 502.309,358.723 506.534,361.15 "/>
<path fill="#A5A5A5" d="M542.573,374.622c-3.1-0.034-6.212-0.801-9.22-1.841l-0.656,1.89c3.134,1.08,6.429,1.909,9.857,1.951
	L542.573,374.622z"/>
<path fill="#A5A5A5" d="M556.897,364.834c-1.415,2.806-3.271,5.406-5.738,7.198l1.177,1.618c2.825-2.059,4.84-4.934,6.347-7.915
	L556.897,364.834z"/>
<path fill="#A5A5A5" d="M561.192,351.163c-0.305,1.58-0.649,3.151-1.052,4.703l1.936,0.502c0.415-1.6,0.769-3.211,1.08-4.827
	L561.192,351.163z"/>
<path fill="#A5A5A5" d="M563.852,327.021c-0.224,3.258-0.578,6.405-0.846,9.762l1.998,0.084c0.253-3.134,0.62-6.46,0.842-9.699
	L563.852,327.021z"/>
<path fill="#A5A5A5" d="M561.988,346.394c-0.23,1.598-0.49,3.189-0.796,4.77l1.964,0.378c0.313-1.616,0.577-3.238,0.812-4.863
	L561.988,346.394z"/>
<path fill="#A5A5A5" d="M564.234,307.62c0.149,3.225,0.169,6.46,0.096,9.696l1.999,0.045c0.075-3.274,0.056-6.555-0.098-9.834
	L564.234,307.62z"/>
<path fill="#A5A5A5" d="M561.104,288.695c1.042,2.997,1.729,6.138,2.215,9.311l1.977-0.303c-0.5-3.26-1.206-6.51-2.303-9.667
	L561.104,288.695z"/>
<path fill="#A5A5A5" d="M553.108,277.652c1.312,0.743,2.486,1.729,3.503,2.877l1.497-1.326c-1.142-1.289-2.49-2.428-4.013-3.291
	L553.108,277.652z"/>
<path fill="#A5A5A5" d="M534.619,283.961c0.42-1.481,1.025-2.904,1.876-4.118c0.848-1.213,1.96-2.192,3.267-2.704l-0.734-1.86
	c-1.74,0.682-3.158,1.965-4.168,3.414c-1.02,1.457-1.697,3.078-2.165,4.724L534.619,283.961z"/>
<path fill="#A5A5A5" d="M548.856,276.171c1.5,0.238,2.942,0.734,4.252,1.481l0.987-1.74c-1.52-0.867-3.206-1.444-4.922-1.716
	L548.856,276.171z"/>
<path fill="#A5A5A5" d="M536.347,302.401c-1.238-2.9-2.043-5.994-2.371-9.13l-1.989,0.208c0.351,3.34,1.203,6.619,2.521,9.708
	L536.347,302.401z"/>
<path fill="#A5A5A5" d="M548.862,315.889c-2.826-1.339-5.368-3.25-7.477-5.567l-1.478,1.349c2.272,2.498,5.032,4.574,8.094,6.024
	L548.862,315.889z"/>
<path fill="#A5A5A5" d="M562.645,318.335c-1.581,0.089-3.166,0.083-4.735-0.055l-0.171,1.992c1.674,0.147,3.354,0.153,5.022,0.06
	L562.645,318.335z"/>
<path fill="#A5A5A5" d="M582.387,307.404c-1.746,2.618-3.92,4.942-6.482,6.723l1.143,1.642c2.792-1.939,5.14-4.459,7.003-7.254
	L582.387,307.404z"/>
<path fill="#A5A5A5" d="M567.347,317.753c-1.526,0.307-3.126,0.482-4.702,0.582l0.116,1.997c1.672-0.106,3.317-0.286,4.984-0.619
	L567.347,317.753z"/>
<path fill="#A5A5A5" d="M588.597,289.533c-0.43,3.172-1.11,6.309-2.117,9.329l1.897,0.633c1.053-3.16,1.758-6.416,2.202-9.694
	L588.597,289.533z"/>
<path fill="#A5A5A5" d="M588.508,270.314c0.408,3.192,0.642,6.406,0.668,9.619l2-0.017c-0.027-3.299-0.267-6.591-0.685-9.857
	L588.508,270.314z"/>
<path fill="#A5A5A5" d="M585.496,256.157c0.461,1.543,0.881,3.099,1.257,4.664l1.944-0.469c-0.385-1.601-0.814-3.189-1.284-4.767
	L585.496,256.157z"/>
<path fill="#A5A5A5" d="M575.469,234.307c1.766,2.682,3.354,5.484,4.771,8.372l1.796-0.882c-1.452-2.958-3.081-5.833-4.896-8.59
	L575.469,234.307z"/>
<path fill="#A5A5A5" d="M583.992,251.568c0.542,1.516,1.045,3.046,1.504,4.589l1.917-0.571c-0.47-1.577-0.983-3.142-1.538-4.691
	L583.992,251.568z"/>
<path fill="#A5A5A5" d="M562.661,220.098c2.509,1.974,4.832,4.188,6.965,6.577l1.491-1.333c-2.203-2.468-4.611-4.764-7.221-6.817
	L562.661,220.098z"/>
<path fill="#A5A5A5" d="M545.64,211.793c3.097,0.711,6.107,1.79,8.96,3.198l0.884-1.794c-2.985-1.475-6.146-2.607-9.396-3.354
	L545.64,211.793z"/>
<path fill="#A5A5A5" d="M531.415,211.047c1.583-0.182,3.175-0.275,4.766-0.285l-0.011-2c-1.665,0.011-3.328,0.108-4.979,0.298
	L531.415,211.047z"/>
<path fill="#A5A5A5" d="M509.164,219.154c2.591-1.834,5.416-3.334,8.367-4.538l-0.754-1.853c-3.076,1.255-6.041,2.827-8.767,4.757
	L509.164,219.154z"/>
<path fill="#A5A5A5" d="M526.693,211.819c1.563-0.332,3.138-0.595,4.722-0.772l-0.225-1.987c-1.651,0.185-3.292,0.458-4.914,0.804
	L526.693,211.819z"/>
<path fill="#A5A5A5" d="M496.7,233.397c1.564-2.791,3.358-5.445,5.436-7.854l-1.515-1.306c-2.179,2.525-4.048,5.295-5.665,8.182
	L496.7,233.397z"/>
<path fill="#A5A5A5" d="M489.204,251.219c1.067-3.069,2.158-6.121,3.373-9.11l-1.853-0.754c-1.236,3.043-2.338,6.126-3.409,9.207
	L489.204,251.219z"/>
<path fill="#A5A5A5" d="M484.234,265.048c0.607-1.524,1.186-3.059,1.744-4.596l-1.88-0.683c-0.554,1.523-1.124,3.037-1.722,4.537
	L484.234,265.048z"/>
<path fill="#A5A5A5" d="M471.348,286.059c2.355-2.357,4.431-4.981,6.236-7.763l-1.677-1.09c-1.739,2.679-3.727,5.188-5.975,7.438
	L471.348,286.059z"/>
<path fill="#A5A5A5" d="M482.304,269.585c0.684-1.498,1.322-3.014,1.931-4.537l-1.857-0.741c-0.599,1.499-1.226,2.984-1.894,4.449
	L482.304,269.585z"/>
<path fill="#A5A5A5" d="M454.672,296.681c1.491-0.669,2.989-1.278,4.499-2.01c1.493-0.728,2.951-1.532,4.366-2.409l-1.059-1.697
	c-1.353,0.839-2.748,1.609-4.183,2.308c-1.42,0.689-2.938,1.31-4.418,1.974L454.672,296.681z"/>
<path fill="#A5A5A5" d="M436.207,303.328c3.103-0.996,6.208-2.005,9.295-3.092l-0.664-1.887c-3.057,1.076-6.145,2.08-9.242,3.074
	L436.207,303.328z"/>
<path fill="#A5A5A5" d="M422.342,306.939c1.521-0.552,3.052-1.082,4.589-1.6l-0.639-1.896c-1.548,0.521-3.094,1.057-4.634,1.616
	L422.342,306.939z"/>
</svg>
